<mxfile host="app.diagrams.net" modified="2021-07-18T15:20:32.603Z" agent="5.0 (Windows NT 10.0; Win64; x64) AppleWebKit/537.36 (KHTML, like Gecko) Chrome/91.0.4472.124 Safari/537.36" etag="dHNyLKHNqj3bWnuB5PQx" version="14.9.0" type="github">
  <diagram id="MJTLnDPR2LjONPN79THH" name="第 1 页">
    <mxGraphModel dx="1038" dy="547" grid="1" gridSize="10" guides="1" tooltips="1" connect="1" arrows="1" fold="1" page="1" pageScale="1" pageWidth="827" pageHeight="1169" math="0" shadow="0">
      <root>
        <mxCell id="0" />
        <mxCell id="1" parent="0" />
        <mxCell id="9inPYozG2aU252dZhFJ_-1" value="WEB" style="rounded=0;whiteSpace=wrap;html=1;" vertex="1" parent="1">
          <mxGeometry x="200" y="90" width="540" height="60" as="geometry" />
        </mxCell>
        <mxCell id="9inPYozG2aU252dZhFJ_-2" value="&lt;span style=&quot;color: rgb(103 , 131 , 156) ; font-family: &amp;#34;helvetica neue&amp;#34; , &amp;#34;helvetica&amp;#34; , &amp;#34;arial&amp;#34; , sans-serif ; font-size: 16px ; background-color: rgb(255 , 255 , 255)&quot;&gt;VUE组件&lt;/span&gt;" style="rounded=0;whiteSpace=wrap;html=1;" vertex="1" parent="1">
          <mxGeometry x="360" y="245" width="120" height="60" as="geometry" />
        </mxCell>
        <mxCell id="9inPYozG2aU252dZhFJ_-6" value="终端" style="text;html=1;strokeColor=none;fillColor=none;align=center;verticalAlign=middle;whiteSpace=wrap;rounded=0;" vertex="1" parent="1">
          <mxGeometry x="100" y="80" width="40" height="50" as="geometry" />
        </mxCell>
        <mxCell id="9inPYozG2aU252dZhFJ_-8" value="展现层" style="text;html=1;strokeColor=none;fillColor=none;align=center;verticalAlign=middle;whiteSpace=wrap;rounded=0;" vertex="1" parent="1">
          <mxGeometry x="90" y="250" width="40" height="50" as="geometry" />
        </mxCell>
        <mxCell id="9inPYozG2aU252dZhFJ_-10" value="本地账户&lt;span style=&quot;white-space: pre&quot;&gt;	&lt;/span&gt;" style="rounded=0;whiteSpace=wrap;html=1;" vertex="1" parent="1">
          <mxGeometry x="220" y="170" width="210" height="50" as="geometry" />
        </mxCell>
        <mxCell id="9inPYozG2aU252dZhFJ_-11" value="LDAP" style="rounded=0;whiteSpace=wrap;html=1;" vertex="1" parent="1">
          <mxGeometry x="470" y="170" width="210" height="50" as="geometry" />
        </mxCell>
        <mxCell id="9inPYozG2aU252dZhFJ_-13" value="权限控制" style="text;html=1;strokeColor=none;fillColor=none;align=center;verticalAlign=middle;whiteSpace=wrap;rounded=0;" vertex="1" parent="1">
          <mxGeometry x="100" y="180" width="70" height="20" as="geometry" />
        </mxCell>
        <mxCell id="9inPYozG2aU252dZhFJ_-15" value="业务逻辑层" style="text;html=1;strokeColor=none;fillColor=none;align=center;verticalAlign=middle;whiteSpace=wrap;rounded=0;" vertex="1" parent="1">
          <mxGeometry x="80" y="420" width="40" height="50" as="geometry" />
        </mxCell>
        <mxCell id="9inPYozG2aU252dZhFJ_-16" value="&lt;span style=&quot;color: rgb(103 , 131 , 156) ; font-family: &amp;#34;helvetica neue&amp;#34; , &amp;#34;helvetica&amp;#34; , &amp;#34;arial&amp;#34; , sans-serif ; font-size: 16px ; background-color: rgb(255 , 255 , 255)&quot;&gt;第三方接口&lt;/span&gt;" style="rounded=0;whiteSpace=wrap;html=1;" vertex="1" parent="1">
          <mxGeometry x="200" y="410" width="120" height="60" as="geometry" />
        </mxCell>
        <mxCell id="9inPYozG2aU252dZhFJ_-17" value="&lt;font color=&quot;#67839c&quot; face=&quot;helvetica neue, helvetica, arial, sans-serif&quot;&gt;&lt;span style=&quot;font-size: 16px ; background-color: rgb(255 , 255 , 255)&quot;&gt;istio网关&lt;/span&gt;&lt;/font&gt;" style="rounded=0;whiteSpace=wrap;html=1;" vertex="1" parent="1">
          <mxGeometry x="360" y="320" width="120" height="60" as="geometry" />
        </mxCell>
        <mxCell id="9inPYozG2aU252dZhFJ_-18" value="&lt;span style=&quot;color: rgb(103 , 131 , 156) ; font-family: &amp;#34;helvetica neue&amp;#34; , &amp;#34;helvetica&amp;#34; , &amp;#34;arial&amp;#34; , sans-serif ; font-size: 16px ; background-color: rgb(255 , 255 , 255)&quot;&gt;发布管理&lt;/span&gt;" style="rounded=0;whiteSpace=wrap;html=1;" vertex="1" parent="1">
          <mxGeometry x="360" y="410" width="120" height="60" as="geometry" />
        </mxCell>
        <mxCell id="9inPYozG2aU252dZhFJ_-19" value="&lt;span style=&quot;color: rgb(103 , 131 , 156) ; font-family: &amp;#34;helvetica neue&amp;#34; , &amp;#34;helvetica&amp;#34; , &amp;#34;arial&amp;#34; , sans-serif ; font-size: 16px ; background-color: rgb(255 , 255 , 255)&quot;&gt;报表管理&lt;/span&gt;" style="rounded=0;whiteSpace=wrap;html=1;" vertex="1" parent="1">
          <mxGeometry x="515" y="410" width="120" height="60" as="geometry" />
        </mxCell>
        <mxCell id="9inPYozG2aU252dZhFJ_-20" value="&lt;font color=&quot;#67839c&quot; face=&quot;helvetica neue, helvetica, arial, sans-serif&quot;&gt;&lt;span style=&quot;font-size: 16px ; background-color: rgb(255 , 255 , 255)&quot;&gt;任务管理&lt;/span&gt;&lt;/font&gt;" style="rounded=0;whiteSpace=wrap;html=1;" vertex="1" parent="1">
          <mxGeometry x="360" y="500" width="120" height="60" as="geometry" />
        </mxCell>
        <mxCell id="9inPYozG2aU252dZhFJ_-21" value="&lt;font color=&quot;#67839c&quot; face=&quot;helvetica neue, helvetica, arial, sans-serif&quot;&gt;&lt;span style=&quot;font-size: 16px ; background-color: rgb(255 , 255 , 255)&quot;&gt;配置管理&lt;/span&gt;&lt;/font&gt;" style="rounded=0;whiteSpace=wrap;html=1;" vertex="1" parent="1">
          <mxGeometry x="200" y="500" width="120" height="60" as="geometry" />
        </mxCell>
        <mxCell id="9inPYozG2aU252dZhFJ_-22" value="数据访问层" style="text;html=1;strokeColor=none;fillColor=none;align=center;verticalAlign=middle;whiteSpace=wrap;rounded=0;" vertex="1" parent="1">
          <mxGeometry x="80" y="590" width="40" height="50" as="geometry" />
        </mxCell>
        <mxCell id="9inPYozG2aU252dZhFJ_-23" value="&lt;font color=&quot;#67839c&quot; face=&quot;helvetica neue, helvetica, arial, sans-serif&quot;&gt;&lt;span style=&quot;font-size: 16px ; background-color: rgb(255 , 255 , 255)&quot;&gt;MYSQL&lt;/span&gt;&lt;/font&gt;" style="rounded=0;whiteSpace=wrap;html=1;" vertex="1" parent="1">
          <mxGeometry x="200" y="600" width="120" height="60" as="geometry" />
        </mxCell>
      </root>
    </mxGraphModel>
  </diagram>
</mxfile>
